<?xml version="1.0" encoding="UTF-8" standalone="no"?><!DOCTYPE svg PUBLIC "-//W3C//DTD SVG 1.1//EN" "http://www.w3.org/Graphics/SVG/1.1/DTD/svg11.dtd"><svg width="100%" height="100%" viewBox="0 0 181 181" version="1.1" xmlns="http://www.w3.org/2000/svg" xmlns:xlink="http://www.w3.org/1999/xlink" xml:space="preserve" xmlns:serif="http://www.serif.com/" style="fill-rule:evenodd;clip-rule:evenodd;stroke-linejoin:round;stroke-miterlimit:1.41421;"><g><path d="M90.5,43.75c-25.813,0 -46.75,20.937 -46.75,46.75c0,25.813 20.937,46.75 46.75,46.75c25.813,0 46.75,-20.937 46.75,-46.75c0,-25.813 -20.937,-46.75 -46.75,-46.75Z" style="fill:#fff;fill-rule:nonzero;"/><path id="hand" d="M73.426,59.733c-0.24,-0.001 -0.476,0.072 -0.674,0.208c-0.148,0.099 -0.271,0.23 -0.361,0.383l-17.24,29.543c-0.213,0.364 -0.215,0.813 -0.005,1.179l17.083,29.588c0.21,0.364 0.599,0.59 1.022,0.592l34.323,0.046c0.425,0.001 0.818,-0.225 1.03,-0.592l17.245,-29.537c0.213,-0.367 0.213,-0.818 0,-1.184l-17.078,-29.584c-0.21,-0.367 -0.601,-0.595 -1.026,-0.596l-34.319,-0.046Zm0.671,2.367l32.959,0.041l16.394,28.405l-16.547,28.368l-32.959,-0.046l-16.394,-28.405l16.547,-28.363Zm15.811,8.28l0,0.005c-1.946,0 -3.55,1.604 -3.55,3.55l0,1.401c-0.373,-0.135 -0.768,-0.222 -1.184,-0.222c-1.947,0 -3.551,1.604 -3.551,3.551l0,1.4c-0.372,-0.135 -0.767,-0.217 -1.183,-0.217c-1.947,0 -3.551,1.604 -3.551,3.551l0,13.61c0,7.52 6.091,13.611 13.611,13.611c7.52,0 13.611,-6.091 13.611,-13.611l0,-1.733l0,-2.497l0,-4.045c0,-2.274 -1.868,-4.142 -4.143,-4.142c-0.636,0 -1.234,0.156 -1.775,0.416l0,-6.343c0,-1.947 -1.604,-3.551 -3.551,-3.551c-0.415,0 -0.811,0.082 -1.183,0.217l0,-1.401c0,-1.946 -1.604,-3.55 -3.551,-3.55Zm0,2.367l0,0.005c0.676,0 1.184,0.507 1.184,1.183l0,16.57c-0.007,0.619 0.464,1.139 1.082,1.193c0.04,0.002 0.08,0.002 0.12,0c0.653,-0.011 1.175,-0.549 1.165,-1.203l0,-11.835c0,-0.676 0.507,-1.183 1.183,-1.183c0.677,0 1.184,0.507 1.184,1.183l0,14.78c-0.528,0.606 -1.184,1.15 -1.184,2.03l0,3.31c-0.022,1.601 2.39,1.601 2.367,0l0,-3.31c0,-0.428 0.221,-0.765 0.601,-0.989c0.358,-0.211 0.579,-0.593 0.583,-1.008l0,-2.89c0.001,-0.026 0.001,-0.052 0,-0.078l0,-1.766c0,-1.004 0.771,-1.776 1.775,-1.776c1.004,0 1.776,0.772 1.776,1.776l0,8.275c0,6.25 -4.995,11.244 -11.244,11.244c-6.249,0 -11.244,-4.994 -11.244,-11.244l0,-3.416l0,-3.093l0,-7.102c0,-0.676 0.508,-1.183 1.184,-1.183c0.676,0 1.183,0.507 1.183,1.183l0,7.102c-0.022,1.6 2.39,1.6 2.368,0l0,-7.102l0,-4.734c0,-0.676 0.507,-1.183 1.183,-1.183c0.676,0 1.184,0.507 1.184,1.183l0,11.836c-0.007,0.619 0.464,1.139 1.081,1.193c0.04,0.002 0.081,0.002 0.121,0c0.651,-0.011 1.172,-0.546 1.165,-1.198l0,-11.835l0,-4.735c0,-0.676 0.507,-1.183 1.183,-1.183Z" style="fill:#2e2e2f;fill-rule:nonzero;"/></g></svg>