<?xml version="1.0" encoding="UTF-8" standalone="no"?><!DOCTYPE svg PUBLIC "-//W3C//DTD SVG 1.1//EN" "http://www.w3.org/Graphics/SVG/1.1/DTD/svg11.dtd"><svg width="100%" height="100%" viewBox="0 0 181 181" version="1.1" xmlns="http://www.w3.org/2000/svg" xmlns:xlink="http://www.w3.org/1999/xlink" xml:space="preserve" xmlns:serif="http://www.serif.com/" style="fill-rule:evenodd;clip-rule:evenodd;stroke-linecap:round;stroke-linejoin:round;stroke-miterlimit:1.5;"><g><g id="Browser-" serif:id="Browser "><rect x="40.097" y="47.889" width="100.075" height="84.613" style="fill:#fff;"/><path d="M74.917,51.541l7.791,0l0,7.792l-7.791,0l0,-7.792Zm-15.584,0l7.792,0l0,7.792l-7.792,0l0,-7.792Zm-15.583,0l7.791,0l0,7.792l-7.791,0l0,-7.792Zm93.5,77.918l-93.5,0l0,-62.334l93.5,0l0,62.334Zm0,-70.126l-46.75,0l0,-7.792l46.75,0l0,7.792Zm7.792,-7.792c0,-4.303 -3.488,-7.791 -7.792,-7.791l-93.5,0c-4.304,0 -7.792,3.488 -7.792,7.791l0,77.918c0,4.303 3.488,7.791 7.792,7.791l93.5,0c4.304,0 7.792,-3.488 7.792,-7.791l0,-77.918Z" style="fill-rule:nonzero;"/></g><g id="Mouth"><path d="M74.856,108.031l31.288,-0.122" style="fill:none;stroke:#2e2e2f;stroke-width:2.56px;"/><path d="M101.701,108.031c0.447,10.666 -12.513,11.699 -12.418,0" style="fill:none;stroke:#2e2e2f;stroke-width:2.56px;"/></g><g id="Eyes"><g id="Eye"><path d="M65.968,83.804l8.888,6.696" style="fill:#2e2e2f;stroke:#2e2e2f;stroke-width:2.56px;"/><path d="M74.856,83.804l-8.888,6.696" style="fill:#2e2e2f;stroke:#2e2e2f;stroke-width:2.56px;"/></g><g id="Eye1" serif:id="Eye"><path d="M106.144,83.804l8.888,6.696" style="fill:#2e2e2f;stroke:#2e2e2f;stroke-width:2.56px;"/><path d="M115.032,83.804l-8.888,6.696" style="fill:#2e2e2f;stroke:#2e2e2f;stroke-width:2.56px;"/></g></g></g></svg>