<?xml version="1.0" encoding="UTF-8" standalone="no"?><!DOCTYPE svg PUBLIC "-//W3C//DTD SVG 1.1//EN" "http://www.w3.org/Graphics/SVG/1.1/DTD/svg11.dtd"><svg width="100%" height="100%" viewBox="0 0 181 181" version="1.1" xmlns="http://www.w3.org/2000/svg" xmlns:xlink="http://www.w3.org/1999/xlink" xml:space="preserve" xmlns:serif="http://www.serif.com/" style="fill-rule:evenodd;clip-rule:evenodd;stroke-linejoin:round;stroke-miterlimit:1.41421;"><g id="Chalk-2" serif:id="Chalk 2"><path d="M98.869,60.807c-4.408,-0.942 -14.529,5.954 -15.411,9.354c-2.576,9.934 1.628,22.285 4.976,24.233l57.863,4.46c0.583,-0.384 1.754,-1.881 1.169,-3.954l-48.597,-34.093Z" style="fill:#222f1e;"/><path d="M98.869,60.807c-2.668,1.583 -4.279,4.916 -5.039,7.344c-2.494,7.97 -3.108,16.997 1.81,21.545c7.371,-8.216 7.894,-17.97 3.229,-28.889Z" style="fill:#a2b2a8;"/><path d="M98.869,60.807c3.769,13.377 2.1,22.725 -3.229,28.889l62.774,6.67c4.657,-8.91 8.108,-17.899 5.163,-27.305l-64.708,-8.254Z" style="fill:#fcf9f4;"/></g><g id="Chalk-1" serif:id="Chalk 1"><path d="M16.878,62.213c4.418,8.875 36.643,44.15 69.23,70.396c14.627,10.549 20.725,1.826 23.656,-14.052c-0.046,-0.543 0.054,-1.273 -2.163,-4.177l-90.723,-52.167Z" style="fill:#262e21;"/><path d="M89.487,131.697c5.323,0.48 18.874,-15.618 19.263,-20.735c-11.271,5.532 -19.322,11.98 -19.263,20.735Z" style="fill:#c2cecc;"/><path d="M89.487,131.697l-72.609,-69.484c0,0 -2.678,-9.409 3.817,-16.566c0.5,-0.552 13.569,-2.986 16.229,-1.272c0.832,0.536 71.826,66.587 71.826,66.587c0,0 -19.146,9.675 -19.263,20.735" style="fill:#fefbf6;"/></g></svg>