<?xml version="1.0" encoding="UTF-8" standalone="no"?><!DOCTYPE svg PUBLIC "-//W3C//DTD SVG 1.1//EN" "http://www.w3.org/Graphics/SVG/1.1/DTD/svg11.dtd"><svg width="100%" height="100%" viewBox="0 0 1024 1024" version="1.1" xmlns="http://www.w3.org/2000/svg" xmlns:xlink="http://www.w3.org/1999/xlink" xml:space="preserve" xmlns:serif="http://www.serif.com/" style="fill-rule:evenodd;clip-rule:evenodd;stroke-linejoin:round;stroke-miterlimit:1.41421;"><g id="School"><path d="M196.035,551.642l135.608,234.88c9.563,16.745 25.866,28.603 44.738,32.55c250.612,51.064 502.715,-94.488 583.799,-337.056c6.017,-18.315 3.899,-38.364 -5.821,-55.019l-135.608,-234.88l-622.716,359.525Z" style="fill-rule:nonzero;"/><path d="M196.035,551.642l42.019,72.783l443.817,-26.744c14.864,-0.9 28.465,-8.753 36.68,-21.178l126.838,-192.193c2.468,-3.742 5.778,-6.861 9.663,-9.104c13.715,-7.918 31.521,-3.147 39.443,10.57l32.759,56.743c9.669,16.636 11.772,36.64 5.763,54.921c-37.398,112.817 -113.343,208.951 -214.447,271.444c114.204,-61.298 200.661,-164.125 241.442,-287.159c5.978,-18.205 3.923,-38.127 -5.653,-54.728l-135.608,-234.88l-622.716,359.525Z" style="fill-rule:nonzero;"/><path d="M356.707,153.357l-310.922,471.281c-4.909,7.478 -5.187,17.123 -0.714,24.87c4.471,7.745 12.965,12.326 21.892,11.811l563.432,-33.92c14.868,-0.902 28.471,-8.755 36.684,-21.178l311.136,-471.141c4.909,-7.477 5.187,-17.122 0.714,-24.87c-4.473,-7.747 -12.965,-12.326 -21.894,-11.812l-563.544,33.723c-14.912,0.887 -28.56,8.765 -36.784,21.236Z" style="fill-rule:nonzero;"/><path d="M100.093,642.971c-9.248,0.558 -18.052,-4.18 -22.685,-12.201c-4.631,-8.023 -4.331,-18.014 0.776,-25.746c5.105,-7.727 285.971,-463.488 278.622,-451.725l-311.021,471.339c-4.909,7.478 -5.187,17.123 -0.714,24.87c4.471,7.745 12.965,12.326 21.892,11.811l563.432,-33.92c13.697,-0.77 -530.302,15.572 -530.302,15.572Z" style="fill-rule:nonzero;"/><path d="M423.982,773.43c-17.369,10.124 -25.931,30.726 -20.85,50.178c28.094,4.208 56.488,6.039 84.893,5.474c5.086,-12.77 4.044,-27.195 -2.832,-39.103c-12.287,-21.283 -39.876,-28.741 -61.211,-16.549Z" style="fill-rule:nonzero;"/><path d="M530.658,392.178l-146.797,250.42l-20.597,3.2l167.394,-253.62Z" style="fill-rule:nonzero;"/><path d="M469.099,829.112c7.525,0.151 15.042,0.136 22.547,-0.045l-107.688,-186.523l-20.694,3.254l105.835,183.314Z" style="fill-rule:nonzero;"/><path d="M466.468,914.437l-149.034,-258.135c-4.251,-7.374 -3.962,-16.558 0.744,-23.651l174.939,-265.501c1.924,-2.913 4.495,-5.34 7.519,-7.087c10.682,-6.166 24.548,-2.45 30.717,8.233c4.251,7.363 3.975,16.536 -0.71,23.632l-167.379,253.87l142.123,246.167c6.164,10.678 2.453,24.534 -8.224,30.696c-10.673,6.164 -24.531,2.452 -30.695,-8.224Z" style="fill-rule:nonzero;"/><path d="M408.634,769.322c21.479,-12.402 48.985,-5.032 61.386,16.447c12.402,21.48 5.03,48.985 -16.447,61.387c-21.48,12.401 -48.987,5.032 -61.389,-16.448c-12.399,-21.479 -5.03,-48.987 16.45,-61.386Z"/><path d="M497.601,344.168c26.852,-15.503 56.957,-13.702 67.188,4.02c10.232,17.72 -3.261,44.695 -30.11,60.196c-26.852,15.503 -56.959,13.702 -67.191,-4.02c-10.229,-17.721 3.263,-44.695 30.113,-60.196Z"/></g></svg>