<?xml version="1.0" encoding="UTF-8" standalone="no"?><!DOCTYPE svg PUBLIC "-//W3C//DTD SVG 1.1//EN" "http://www.w3.org/Graphics/SVG/1.1/DTD/svg11.dtd"><svg width="100%" height="100%" viewBox="0 0 128 128" version="1.1" xmlns="http://www.w3.org/2000/svg" xmlns:xlink="http://www.w3.org/1999/xlink" xml:space="preserve" xmlns:serif="http://www.serif.com/" style="fill-rule:evenodd;clip-rule:evenodd;stroke-linejoin:round;stroke-miterlimit:1.41421;"><path d="M114,115.855c0,-27.563 -22.345,-49.908 -49.908,-49.908c-0.061,0 -0.123,0 -0.184,0c-27.563,0 -49.908,22.345 -49.908,49.908l0,0.001c0,3.767 3.053,6.82 6.82,6.82c18.259,0 68.101,0 86.36,0c3.767,0 6.82,-3.053 6.82,-6.82l0,-0.001Z" style="fill:#2e2e2f;"/><circle cx="64" cy="44.415" r="25.88" style="fill:#2e2e2f;"/><g id="Book"><path d="M64,91c0,0 -4.015,-3.665 -10,-4.272c-5.985,-0.606 -15.012,0 -15.012,0l25.012,4.272Z" style="fill:#f8f2e3;"/><path d="M64,91c0,0 3.87,-3.665 9.855,-4.272c5.985,-0.606 15.013,0 15.013,0l-24.868,4.272Z" style="fill:#f7e9c9;"/><path d="M88.868,86.728l-24.868,4.272l-25.012,-4.272l0.072,35.948l24.94,4l24.94,-4l-0.072,-35.948Z"/><g id="green"><path d="M63,91l2,0l-0.014,35.504l-0.986,0.172l-0.968,-0.16l-0.032,-35.516Z" style="fill:#256f51;"/><path d="M88.94,86.728l0,35.948l-24.94,4l0,-35.676l24.94,-4.272Z" style="fill:#257354;"/><path d="M38.988,86.728l25.012,4.272l0,35.676l-25.012,-4l0,-35.948l25.012,4.272" style="fill:#1c6749;"/></g></g></svg>