<?xml version="1.0" encoding="UTF-8" standalone="no"?><!DOCTYPE svg PUBLIC "-//W3C//DTD SVG 1.1//EN" "http://www.w3.org/Graphics/SVG/1.1/DTD/svg11.dtd"><svg width="100%" height="100%" viewBox="0 0 128 128" version="1.1" xmlns="http://www.w3.org/2000/svg" xmlns:xlink="http://www.w3.org/1999/xlink" xml:space="preserve" xmlns:serif="http://www.serif.com/" style="fill-rule:evenodd;clip-rule:evenodd;stroke-linejoin:round;stroke-miterlimit:1.41421;"><path d="M114,115.855c0,-27.563 -22.345,-49.908 -49.908,-49.908c-0.061,0 -0.123,0 -0.184,0c-27.563,0 -49.908,22.345 -49.908,49.908c0,0.001 0,0.001 0,0.001c0,3.767 3.053,6.82 6.82,6.82c18.259,0 68.101,0 86.36,0c3.767,0 6.82,-3.053 6.82,-6.82c0,0 0,0 0,-0.001Z" style="fill:#2e2e2f;"/><g id="School"><ellipse cx="64" cy="44.415" rx="25.88" ry="25.88" style="fill:#2e2e2f;"/><path d="M78.243,6.322l26.201,27.623c0.414,0.438 0.546,1.076 0.34,1.643c-0.205,0.567 -0.715,0.971 -1.314,1.042l-37.808,4.392c-0.998,0.116 -1.993,-0.245 -2.685,-0.973l-26.214,-27.612c-0.414,-0.438 -0.546,-1.075 -0.34,-1.642c0.205,-0.567 0.715,-0.972 1.314,-1.043l37.813,-4.407c1.001,-0.117 2,0.246 2.693,0.977Z" style="fill:#2e2e2f;fill-rule:nonzero;"/><path d="M81.089,48.284c1.272,0.467 2.084,1.734 1.976,3.085c-1.816,0.611 -3.68,1.067 -5.572,1.365c-0.488,-0.788 -0.589,-1.758 -0.273,-2.63c0.565,-1.558 2.308,-2.378 3.869,-1.82Z" style="fill:#1f1f1f;fill-rule:nonzero;"/><path d="M69.51,24.229l12.699,14.895l1.406,-0.03l-14.105,-14.865Z" style="fill:#1f1f1f;fill-rule:nonzero;"/><path d="M78.75,52.513c-0.498,0.098 -0.997,0.186 -1.498,0.263l4.95,-13.654l1.413,-0.028l-4.865,13.419Z" style="fill:#1f1f1f;fill-rule:nonzero;"/><path d="M79.931,58.147l6.85,-18.896c0.196,-0.54 0.068,-1.146 -0.328,-1.562l-14.746,-15.564c-0.162,-0.171 -0.361,-0.302 -0.582,-0.382c-0.782,-0.284 -1.659,0.127 -1.943,0.909c-0.195,0.539 -0.069,1.144 0.326,1.56l14.107,14.882l-6.533,18.02c-0.284,0.781 0.126,1.657 0.908,1.941c0.781,0.283 1.657,-0.127 1.941,-0.908Z" style="fill:#fd8002;fill-rule:nonzero;"/><path d="M82.059,47.83c-1.572,-0.57 -3.311,0.244 -3.881,1.816c-0.571,1.572 0.243,3.312 1.816,3.882c1.572,0.57 3.311,-0.244 3.881,-1.816c0.57,-1.573 -0.243,-3.312 -1.816,-3.882Z" style="fill:#fd8002;"/><path d="M71.139,20.652c-1.966,-0.713 -3.944,-0.238 -4.414,1.059c-0.47,1.297 0.744,2.929 2.709,3.642c1.966,0.712 3.943,0.237 4.414,-1.06c0.47,-1.297 -0.744,-2.929 -2.709,-3.641Z" style="fill:#1f1f1f;"/></g><g><ellipse cx="64" cy="44.415" rx="25.88" ry="25.88" style="fill:#2e2e2f;"/></g></svg>