<?xml version="1.0" encoding="UTF-8" standalone="no"?><!DOCTYPE svg PUBLIC "-//W3C//DTD SVG 1.1//EN" "http://www.w3.org/Graphics/SVG/1.1/DTD/svg11.dtd"><svg width="100%" height="100%" viewBox="0 0 128 128" version="1.1" xmlns="http://www.w3.org/2000/svg" xmlns:xlink="http://www.w3.org/1999/xlink" xml:space="preserve" xmlns:serif="http://www.serif.com/" style="fill-rule:evenodd;clip-rule:evenodd;stroke-linejoin:round;stroke-miterlimit:1.41421;"><path d="M67.598,5.952c26.503,-0.281 47.514,22.857 49.011,51.011c1.494,28.109 -24.254,51.651 -49.011,51.01c-27.164,-0.703 -49.746,-23.106 -49.01,-51.01c0.731,-27.712 22.5,-50.729 49.01,-51.011Z" style="fill:#000408;fill-opacity:0.290196;"/><path d="M62,9c26.497,-0.281 47.504,22.852 49,51c1.494,28.103 -24.249,51.641 -49,51c-27.159,-0.703 -49.736,-23.102 -49,-51c0.731,-27.706 22.495,-50.718 49,-51Z" style="fill:#2d7b5c;"/><path d="M57,9c26.497,-0.281 47.504,22.852 49,51c1.494,28.103 -24.249,51.641 -49,51c-27.159,-0.703 -49.736,-23.102 -49,-51c0.731,-27.706 22.495,-50.718 49,-51Z" style="fill:#2ab77e;"/></svg>