<?xml version="1.0" encoding="UTF-8" standalone="no"?><!DOCTYPE svg PUBLIC "-//W3C//DTD SVG 1.1//EN" "http://www.w3.org/Graphics/SVG/1.1/DTD/svg11.dtd"><svg width="100%" height="100%" viewBox="0 0 256 78" version="1.1" xmlns="http://www.w3.org/2000/svg" xmlns:xlink="http://www.w3.org/1999/xlink" xml:space="preserve" xmlns:serif="http://www.serif.com/" style="fill-rule:evenodd;clip-rule:evenodd;stroke-linejoin:round;stroke-miterlimit:1.41421;"><path d="M4.081,14.356l3.452,2.372l-1.079,2.589l1.294,2.372l-1.725,2.373l1.51,2.373l-3.02,2.157l3.882,1.51l-0.431,1.941l-2.588,1.726l1.725,3.235l1.079,0l-2.804,3.667l1.725,2.157l0.432,2.157l0.215,1.725l0.432,1.079l-0.647,0.431l1.294,1.51l-1.942,2.373l2.805,1.51l-3.02,3.882l2.157,1.295l-0.863,1.509l2.373,2.373l-1.295,2.157l2.157,1.51l0.216,0.863l-4.098,3.451l3.667,1.078l-0.647,0.648l2.157,1.509l239.425,-10.784l-0.216,-2.373l-2.881,-2.397l2.018,-2.133l-1.51,-2.373l1.294,-1.941l1.079,-3.02l-0.216,-1.941l0,-2.804l-1.725,-2.804l1.294,-2.157l0.431,-5.392l-1.51,-1.51l1.942,-5.824l-1.51,-1.941l0.647,-2.373l-2.157,-4.746l1.078,-1.941l-0.647,-3.667l0.863,-1.941l-1.078,-1.078l2.156,-2.589l-2.372,-2.588l-244.818,10.785Z" style="fill:#b1b1b1;fill-opacity:0.415686;"/></svg>