<?xml version="1.0" standalone="no"?>
<!DOCTYPE svg PUBLIC "-//W3C//DTD SVG 20010904//EN"
 "http://www.w3.org/TR/2001/REC-SVG-20010904/DTD/svg10.dtd">
<svg version="1.0" xmlns="http://www.w3.org/2000/svg"
 width="700.000000pt" height="700.000000pt" viewBox="0 0 700.000000 700.000000"
 preserveAspectRatio="xMidYMid meet">
<metadata>
Created by potrace 1.11, written by Peter Selinger 2001-2013
</metadata>
<g transform="translate(0.000000,700.000000) scale(0.100000,-0.100000)"
fill="#000000" stroke="none">
<path d="M6187 6114 c-1 -1 -60 -5 -132 -8 -71 -4 -155 -9 -185 -11 -30 -3
-102 -7 -160 -10 -188 -10 -412 -24 -500 -30 -52 -4 -203 -13 -350 -20 -64 -3
-179 -10 -335 -20 -44 -3 -116 -7 -160 -10 -44 -3 -116 -7 -160 -10 -44 -3
-123 -7 -175 -10 -52 -3 -124 -8 -160 -10 -36 -2 -110 -7 -165 -10 -205 -12
-401 -23 -515 -30 -63 -4 -141 -9 -341 -20 -198 -11 -256 -39 -345 -162 -31
-43 -197 -292 -369 -553 -456 -692 -612 -928 -910 -1380 -148 -223 -302 -457
-343 -520 -41 -63 -128 -194 -192 -290 -156 -235 -170 -260 -170 -305 0 -48
33 -106 73 -131 36 -21 91 -23 292 -11 66 5 156 10 200 13 44 2 112 6 150 9
39 2 120 7 180 11 61 3 126 7 145 9 19 2 94 6 167 10 l131 7 49 -83 c26 -46
53 -91 58 -101 6 -9 23 -41 39 -70 15 -29 34 -60 41 -68 7 -8 14 -20 16 -26 2
-6 74 -131 159 -279 99 -172 171 -286 200 -315 69 -70 158 -116 262 -135 31
-6 39 -13 48 -41 14 -41 85 -115 134 -138 19 -9 54 -19 78 -22 49 -7 31 17
197 -269 95 -164 125 -195 193 -195 81 0 141 59 141 139 0 48 -8 66 -152 311
-69 116 -86 149 -80 154 2 2 79 6 170 10 92 3 173 8 180 10 8 3 41 7 74 10 33
3 71 8 85 10 14 3 41 7 60 10 399 60 914 263 1264 497 575 385 1014 948 1247
1599 31 86 34 105 33 200 0 122 -7 141 -121 336 -259 442 -424 737 -420 748 3
8 46 74 95 147 175 263 207 311 217 327 6 10 82 125 169 257 87 132 165 255
173 274 27 64 -4 148 -67 183 -28 15 -52 18 -123 16 -48 -1 -89 -3 -90 -4z"/>
</g>
</svg>
