<?xml version="1.0" encoding="UTF-8" standalone="no"?><!DOCTYPE svg PUBLIC "-//W3C//DTD SVG 1.1//EN" "http://www.w3.org/Graphics/SVG/1.1/DTD/svg11.dtd"><svg width="100%" height="100%" viewBox="0 0 512 512" version="1.1" xmlns="http://www.w3.org/2000/svg" xmlns:xlink="http://www.w3.org/1999/xlink" xml:space="preserve" xmlns:serif="http://www.serif.com/" style="fill-rule:evenodd;clip-rule:evenodd;stroke-linejoin:round;stroke-miterlimit:1.41421;"><g id="School"><path d="M109.502,274.38l62.875,108.903c4.434,7.764 11.993,13.262 20.743,15.092c116.197,23.676 233.085,-43.81 270.68,-156.277c2.79,-8.492 1.808,-17.788 -2.699,-25.51l-62.875,-108.903l-288.724,166.695Z" style="fill:#2e2e2f;fill-rule:nonzero;"/><path d="M109.502,274.38l19.482,33.746l205.777,-12.4c6.892,-0.417 13.198,-4.058 17.007,-9.819l58.809,-89.111c1.144,-1.735 2.679,-3.181 4.48,-4.221c6.359,-3.671 14.615,-1.459 18.288,4.901l15.189,26.309c4.483,7.713 5.458,16.988 2.672,25.464c-17.34,52.308 -52.552,96.881 -99.429,125.856c52.951,-28.421 93.037,-76.097 111.945,-133.142c2.772,-8.441 1.819,-17.678 -2.621,-25.375l-62.875,-108.903l-288.724,166.695Z" style="fill:#1f1f1f;fill-rule:nonzero;"/><path d="M183.998,89.714l-144.16,218.511c-2.276,3.467 -2.405,7.939 -0.331,11.531c2.073,3.591 6.011,5.715 10.15,5.476l261.237,-15.727c6.894,-0.418 13.201,-4.059 17.009,-9.819l144.259,-218.446c2.276,-3.467 2.405,-7.939 0.331,-11.531c-2.074,-3.592 -6.011,-5.715 -10.151,-5.477l-261.289,15.636c-6.914,0.411 -13.242,4.064 -17.055,9.846Z" style="fill:#2e2e2f;fill-rule:nonzero;"/><path d="M65.018,316.725c-4.288,0.259 -8.37,-1.938 -10.518,-5.657c-2.147,-3.72 -2.008,-8.352 0.36,-11.937c2.367,-3.583 132.591,-214.898 129.184,-209.444l-144.206,218.538c-2.276,3.467 -2.405,7.939 -0.331,11.531c2.073,3.591 6.011,5.715 10.15,5.476l261.237,-15.727c6.351,-0.357 -245.876,7.22 -245.876,7.22Z" style="fill:#1f1f1f;fill-rule:nonzero;"/><path d="M215.19,377.213c-8.053,4.694 -12.023,14.246 -9.667,23.265c13.026,1.951 26.191,2.8 39.361,2.538c2.358,-5.921 1.875,-12.609 -1.313,-18.13c-5.697,-9.868 -18.489,-13.326 -28.381,-7.673Z" style="fill:#1f1f1f;fill-rule:nonzero;"/><path d="M264.651,200.444l-68.063,116.108l-9.55,1.484l77.613,-117.592Z" style="fill:#1f1f1f;fill-rule:nonzero;"/><path d="M236.109,403.03c3.489,0.07 6.974,0.063 10.454,-0.021l-49.93,-86.482l-9.595,1.509l49.071,84.994Z" style="fill:#1f1f1f;fill-rule:nonzero;"/><path d="M234.889,442.591l-69.1,-119.685c-1.971,-3.419 -1.837,-7.677 0.345,-10.966l81.111,-123.1c0.892,-1.351 2.084,-2.476 3.486,-3.286c4.953,-2.859 11.382,-1.136 14.242,3.817c1.971,3.414 1.843,7.667 -0.329,10.957l-77.606,117.708l65.896,114.136c2.858,4.951 1.137,11.375 -3.813,14.232c-4.949,2.858 -11.374,1.137 -14.232,-3.813Z" style="fill:#fd8002;fill-rule:nonzero;"/><path d="M208.074,375.308c9.959,-5.75 22.712,-2.333 28.462,7.626c5.75,9.959 2.332,22.712 -7.626,28.462c-9.959,5.75 -22.713,2.333 -28.463,-7.626c-5.749,-9.959 -2.332,-22.713 7.627,-28.462Z" style="fill:#fd8002;"/><path d="M249.324,178.184c12.45,-7.188 26.408,-6.353 31.152,1.864c4.744,8.216 -1.512,20.723 -13.961,27.91c-12.45,7.188 -26.409,6.353 -31.153,-1.864c-4.743,-8.216 1.513,-20.723 13.962,-27.91Z" style="fill:#1f1f1f;"/></g></svg>