<?xml version="1.0" encoding="UTF-8" standalone="no"?><!DOCTYPE svg PUBLIC "-//W3C//DTD SVG 1.1//EN" "http://www.w3.org/Graphics/SVG/1.1/DTD/svg11.dtd"><svg width="100%" height="100%" viewBox="0 0 64 64" version="1.1" xmlns="http://www.w3.org/2000/svg" xmlns:xlink="http://www.w3.org/1999/xlink" xml:space="preserve" xmlns:serif="http://www.serif.com/" style="fill-rule:evenodd;clip-rule:evenodd;stroke-linejoin:round;stroke-miterlimit:1.41421;"><g><g id="tissue"><path d="M19.572,44.444l-8.905,16.593l10.074,-3.556l6.518,3.556l1.185,-14.222l-8.872,-2.371Z" style="fill:#09a4ee;"/><path d="M44.428,44.444l8.905,16.593l-10.074,-3.556l-6.518,3.556l-1.185,-14.222l8.872,-2.371Z" style="fill:#09a4ee;"/></g><g id="Medal"><ellipse cx="32.593" cy="23.704" rx="14.815" ry="14.843" style="fill:#fdc23d;fill-opacity:0.74902;"/><path d="M32,12.334l2.794,8.19l9.041,0l-7.314,5.061l2.794,8.19l-7.315,-5.062l-7.315,5.062l2.794,-8.19l-7.314,-5.061l9.041,0l2.794,-8.19Z" style="fill:#f15924;"/><path d="M33.457,2.982c-0.576,-0.025 -1.153,-0.025 -1.729,0l-4.096,1.666l-4.356,0.665c-0.511,0.275 -1.01,0.572 -1.497,0.89l-2.738,3.551l-3.449,2.818c-0.309,0.501 -0.598,1.015 -0.864,1.541l-0.647,4.485l-1.618,4.216c-0.025,0.593 -0.025,1.187 0,1.78l1.618,4.216l0.647,4.484c0.266,0.526 0.555,1.04 0.864,1.541l3.449,2.819l2.738,3.55c0.487,0.319 0.986,0.616 1.497,0.89l4.356,0.666l4.096,1.665c0.576,0.026 1.153,0.026 1.729,0l4.096,-1.665l4.356,-0.666c0.511,-0.274 1.011,-0.571 1.497,-0.89l2.738,-3.55l3.449,-2.819c0.31,-0.501 0.598,-1.015 0.865,-1.541l0.646,-4.484l1.618,-4.216c0.025,-0.593 0.025,-1.187 0,-1.78l-1.618,-4.216l-0.646,-4.485c-0.267,-0.526 -0.555,-1.04 -0.865,-1.541l-3.449,-2.818l-2.738,-3.551c-0.486,-0.318 -0.986,-0.615 -1.497,-0.89l-4.356,-0.665l-4.096,-1.666Zm-0.864,6.494c7.628,0 13.821,6.375 13.821,14.228c0,7.852 -6.193,14.227 -13.821,14.227c-7.628,0 -13.821,-6.375 -13.821,-14.227c0,-7.853 6.193,-14.228 13.821,-14.228Z" style="fill:#fdc23d;"/></g></g></svg>