<?xml version="1.0" encoding="UTF-8" standalone="no"?><!DOCTYPE svg PUBLIC "-//W3C//DTD SVG 1.1//EN" "http://www.w3.org/Graphics/SVG/1.1/DTD/svg11.dtd"><svg width="100%" height="100%" viewBox="0 0 128 128" version="1.1" xmlns="http://www.w3.org/2000/svg" xmlns:xlink="http://www.w3.org/1999/xlink" xml:space="preserve" xmlns:serif="http://www.serif.com/" style="fill-rule:evenodd;clip-rule:evenodd;stroke-linejoin:round;stroke-miterlimit:1.41421;"><g><path d="M38.973,123.956l16.324,-12c18.244,-1.576 64.592,-14.989 39.676,-29l4,-7.777c9.152,-0.235 13.581,-3.711 16.5,-8.223c-10.034,-3.739 -22.192,-6.115 -39,-6l-41.5,38c-2.198,4.701 -1.078,7.045 2,8l10.11,5l-8.11,12Z" style="fill:#000408;fill-opacity:0.290196;"/><path d="M37.973,99.956l-2,13l1.5,11l1.5,0l6,-8.5l2.11,-14.049l-9.11,-1.451Z" style="fill:#979fa7;"/><path d="M31.473,48.956c-14.041,4.667 -26.829,22.081 -13,39c3.888,4.757 9.773,9.969 20.508,12.265c10.949,2.342 22.038,1.112 29.492,-2.765c19.653,-10.222 15.177,-35.405 0.5,-43c-1.581,-0.818 -36.928,-5.69 -37.5,-5.5Z" style="fill:#36906f;"/><path d="M31.473,50.782c-25.788,9.088 -8.871,33.111 16.5,37.174c22.246,3.563 45.537,-13.994 20,-32.5c-0.626,-0.453 -36.5,-4.674 -36.5,-4.674Z" style="fill:#1cb47e;"/><path d="M32.973,42.956c0,0 -1.93,7.193 -2.785,14.812c-0.599,5.336 4.999,10.709 14.785,13.188c10.35,2.622 21.207,-0.882 21.595,-4.259c1.225,-10.656 2.405,-18.741 2.405,-18.741l-36,-5Z" style="fill:#1f9e71;"/><path d="M33.473,42.956l-0.5,6c7.659,10.002 18.615,12.04 32.5,7l2.5,-7.5l-34.5,-5.5Z" style="fill:#211818;fill-opacity:0.509804;"/><path d="M27.227,12.956l56.64,11c0,0 5.469,27.541 -31.894,26c-5.173,-0.213 -38.386,-7.275 -24.746,-37Z" style="fill:#1cb47e;"/><path d="M54.913,4.456c13.415,1.412 29.476,11.934 28.941,20c-0.598,9.019 -7.168,14.122 -27.941,13c-15.827,-0.855 -31.338,-16.287 -28.94,-24c2.044,-6.577 10.983,-10.786 27.94,-9Z" style="fill:#00dd93;"/></g></svg>