<?xml version="1.0" encoding="UTF-8" standalone="no"?><!DOCTYPE svg PUBLIC "-//W3C//DTD SVG 1.1//EN" "http://www.w3.org/Graphics/SVG/1.1/DTD/svg11.dtd"><svg width="100%" height="100%" viewBox="0 0 181 181" version="1.1" xmlns="http://www.w3.org/2000/svg" xmlns:xlink="http://www.w3.org/1999/xlink" xml:space="preserve" xmlns:serif="http://www.serif.com/" style="fill-rule:evenodd;clip-rule:evenodd;stroke-linejoin:round;stroke-miterlimit:1.41421;"><g><path id="Ghost" d="M129.295,134.497l-2.407,-16.877c-0.924,-6.46 -1.391,-13.039 -1.391,-19.561l0,-18.116c0,-19.066 -14.364,-34.934 -32.702,-36.122c-20.297,-1.281 -37.353,14.882 -37.353,34.988l0,19.25c0,6.522 -0.468,13.101 -1.391,19.561l-2.482,17.403c-0.081,0.561 0.086,1.126 0.456,1.554c0.37,0.425 0.908,0.67 1.473,0.67c3.023,0 4.605,-1.332 5.879,-2.404c1.067,-0.895 1.776,-1.492 3.381,-1.492c1.605,0 2.311,0.592 3.378,1.492c1.27,1.072 2.855,2.404 5.879,2.404c3.023,0 4.605,-1.332 5.879,-2.407c1.063,-0.897 1.768,-1.489 3.366,-1.489c1.597,0 2.302,0.592 3.366,1.489c1.273,1.071 2.855,2.407 5.875,2.407c3.023,0 4.601,-1.332 5.875,-2.407c1.063,-0.897 1.768,-1.489 3.366,-1.489c1.6,0 2.298,0.592 3.361,1.489c1.271,1.071 2.852,2.407 5.868,2.407c3.019,0 4.597,-1.336 5.863,-2.407c1.06,-0.897 1.765,-1.489 3.354,-1.489c1.598,0 2.299,0.592 3.362,1.489c1.274,1.071 2.856,2.407 5.875,2.407c0.031,0.004 0.063,0.004 0.074,0c1.076,0 1.948,-0.873 1.948,-1.948c0.02,-0.284 -0.043,-0.557 -0.152,-0.802Zm-50.502,-47.896c-2.871,0 -3.891,-4.024 -3.891,-7.792c0,-3.766 1.02,-7.791 3.891,-7.791c2.868,0 3.892,4.025 3.892,7.791c0,3.768 -1.02,7.792 -3.892,7.792Zm23.352,0c-2.871,0 -3.892,-4.024 -3.892,-7.792c0,-3.766 1.021,-7.791 3.892,-7.791c2.868,0 3.892,4.025 3.892,7.791c0,3.768 -1.021,7.792 -3.892,7.792Z" style="fill:#fff;fill-rule:nonzero;"/><path id="Mouth" d="M84.948,110.519c0.986,-0.806 4.122,-1.433 5.556,-1.433c1.434,0 4.571,0.717 5.557,1.433c0,0 1.434,-4.66 -2.062,-7.886c-0.806,-0.807 -2.509,-1.613 -3.495,-1.613c-0.985,0 -2.509,0.717 -3.405,1.523c-3.585,3.226 -2.151,7.976 -2.151,7.976Z" style="fill:#2e2e2f;fill-rule:nonzero;"/><g id="Eyes"><ellipse cx="78.821" cy="78.814" rx="5.844" ry="7.791" style="fill:#2e2e2f;"/><ellipse cx="102.196" cy="78.814" rx="5.844" ry="7.791" style="fill:#2e2e2f;"/></g></g></svg>