<?xml version="1.0" encoding="UTF-8" standalone="no"?><!DOCTYPE svg PUBLIC "-//W3C//DTD SVG 1.1//EN" "http://www.w3.org/Graphics/SVG/1.1/DTD/svg11.dtd"><svg width="100%" height="100%" viewBox="0 0 181 181" version="1.1" xmlns="http://www.w3.org/2000/svg" xmlns:xlink="http://www.w3.org/1999/xlink" xml:space="preserve" xmlns:serif="http://www.serif.com/" style="fill-rule:evenodd;clip-rule:evenodd;stroke-linecap:round;stroke-linejoin:round;stroke-miterlimit:1.5;"><g><path d="M90.5,43.75c-25.813,0 -46.75,20.937 -46.75,46.75c0,25.813 20.937,46.75 46.75,46.75c25.813,0 46.75,-20.937 46.75,-46.75c0,-25.813 -20.937,-46.75 -46.75,-46.75Z" style="fill:#fff;fill-rule:nonzero;"/><path d="M90.5,55.002c19.598,0 35.509,15.908 35.509,35.5c0,19.593 -15.911,35.5 -35.509,35.5c-19.598,0 -35.509,-15.907 -35.509,-35.5c0,-19.592 15.911,-35.5 35.509,-35.5Zm0,3.399c17.722,0 32.11,14.384 32.11,32.101c0,17.718 -14.388,32.102 -32.11,32.102c-17.722,0 -32.11,-14.384 -32.11,-32.102c0,-17.717 14.388,-32.101 32.11,-32.101Z" style="fill:#2e2e2f;"/><g><path d="M90.5,87.502c1.65,0 3,-1.35 3,-3l0,-6c0,-1.65 -1.35,-3 -3,-3c-1.65,0 -3,1.35 -3,3l0,6c0,1.65 1.35,3 3,3Z" style="fill:#2e2e2f;fill-rule:nonzero;"/><path d="M101.15,79.852c-0.45,-0.45 -0.9,-0.6 -1.65,-0.6c-1.2,0 -2.25,1.05 -2.25,2.25c0,0.6 0.3,1.2 0.6,1.65c1.95,1.95 3,4.5 3,7.35c0,5.85 -4.65,10.5 -10.5,10.5c-5.85,0 -10.5,-4.65 -10.5,-10.5c0,-2.85 1.2,-5.55 3.15,-7.35c0.45,-0.45 0.75,-1.05 0.75,-1.65c0,-1.2 -1.05,-2.25 -2.25,-2.25c-0.6,0 -1.2,0.3 -1.65,0.6c-2.7,2.7 -4.35,6.45 -4.35,10.65c0,8.25 6.75,15 15,15c8.25,0 15,-6.75 15,-15c0,-4.2 -1.65,-7.95 -4.35,-10.65Z" style="fill:#2e2e2f;fill-rule:nonzero;"/></g></g><path d="M56.738,65.984l67.524,49.036" style="fill:#2e2e2f;stroke:#2e2e2f;stroke-width:5.5px;"/></svg>