<?xml version="1.0" encoding="UTF-8" standalone="no"?><!DOCTYPE svg PUBLIC "-//W3C//DTD SVG 1.1//EN" "http://www.w3.org/Graphics/SVG/1.1/DTD/svg11.dtd"><svg width="100%" height="100%" viewBox="0 0 181 181" version="1.1" xmlns="http://www.w3.org/2000/svg" xmlns:xlink="http://www.w3.org/1999/xlink" xml:space="preserve" xmlns:serif="http://www.serif.com/" style="fill-rule:evenodd;clip-rule:evenodd;stroke-linejoin:round;stroke-miterlimit:1.41421;"><g id="Hourglass"><path d="M111.538,101.278c0,0 -6.955,-6.655 -9.093,-8.7c-2.139,-2.045 0,-4.156 0,-4.156c0,0 3.132,-2.997 9.754,-9.334c6.622,-6.336 6.351,-15.568 6.351,-15.568l0.003,-11.979l-28.053,-2.338l-28.053,2.338l0.003,11.979c0,0 -0.271,9.232 6.351,15.568c6.622,6.337 9.754,9.334 9.754,9.334c0,0 2.139,2.111 0,4.156c-2.138,2.045 -9.093,8.7 -9.093,8.7c0.001,0 -7.012,6.655 -7.012,17.272c0,10.617 -0.003,11.882 -0.003,11.882l56.106,0c0,0 -0.003,-1.267 -0.003,-11.882c0,-10.617 -7.012,-17.272 -7.012,-17.272Z" style="fill:#fff;fill-rule:nonzero;"/><path d="M88.163,116.213l0.072,-25.713c0.038,-4.818 -2.226,-7.859 -3.112,-8.733l-9.859,-9.434c-3.347,-3.205 -3.469,-8.485 -3.469,-8.537l37.41,0c-0.002,0 -0.054,5.271 -3.469,8.537l-9.755,9.332c-0.99,0.976 -3.181,4.017 -3.144,8.835l0,25.712l-4.674,0Z" style="fill:#2e2e2f;fill-rule:nonzero;"/><path d="M127.9,48.425c0,2.583 -2.092,4.675 -4.675,4.675l-65.45,0c-2.583,0 -4.675,-2.092 -4.675,-4.675c0,-2.583 2.092,-4.675 4.675,-4.675l65.45,0c2.583,0 4.675,2.092 4.675,4.675Z" style="fill-rule:nonzero;"/><path d="M127.9,132.575c0,2.583 -2.092,4.675 -4.675,4.675l-65.45,0c-2.583,0 -4.675,-2.092 -4.675,-4.675c0,-2.583 2.092,-4.675 4.675,-4.675l65.45,0c2.583,0 4.675,2.092 4.675,4.675Z" style="fill-rule:nonzero;"/><path d="M111.538,127.9l-42.075,0l21.037,-18.7l21.038,18.7Z" style="fill:#2e2e2f;fill-rule:nonzero;"/></g></svg>