<?xml version="1.0" encoding="UTF-8" standalone="no"?><!DOCTYPE svg PUBLIC "-//W3C//DTD SVG 1.1//EN" "http://www.w3.org/Graphics/SVG/1.1/DTD/svg11.dtd"><svg width="100%" height="100%" viewBox="0 0 128 128" version="1.1" xmlns="http://www.w3.org/2000/svg" xmlns:xlink="http://www.w3.org/1999/xlink" xml:space="preserve" xmlns:serif="http://www.serif.com/" style="fill-rule:evenodd;clip-rule:evenodd;stroke-linecap:round;stroke-linejoin:round;stroke-miterlimit:1.5;"><path d="M114,115.855c0,-27.563 -22.345,-49.908 -49.908,-49.908c-0.061,0 -0.123,0 -0.184,0c-27.563,0 -49.908,22.345 -49.908,49.908l0,0.001c0,3.767 3.053,6.82 6.82,6.82c18.259,0 68.101,0 86.36,0c3.767,0 6.82,-3.053 6.82,-6.82l0,-0.001Z" style="fill:#2e2e2f;"/><circle cx="64" cy="44.415" r="25.88" style="fill:#2e2e2f;"/><g id="Badge"><path d="M92,87.562c0,-1.242 -1.008,-2.25 -2.25,-2.25l-13.5,0c-1.242,0 -2.25,1.008 -2.25,2.25l0,4.5c0,1.241 1.008,2.25 2.25,2.25l13.5,0c1.242,0 2.25,-1.009 2.25,-2.25l0,-4.5Z" style="fill:#ebebeb;"/><path d="M83,87.357l5,0" style="fill:#2e2e2f;stroke:#2e2e2f;stroke-width:0.75px;"/><path d="M76,91.812l7,0" style="fill:#2e2e2f;stroke:#2e2e2f;stroke-width:0.75px;"/><path d="M85,88.863l-2,0" style="fill:#2e2e2f;stroke:#2e2e2f;stroke-width:0.75px;"/><path d="M80,89.725c0,-1.103 -0.894,-1.997 -1.996,-1.997c-0.003,0 -0.005,0 -0.008,0c-1.102,0 -1.996,0.894 -1.996,1.997l0,0c0,0.15 0.122,0.273 0.273,0.273c0.73,0 2.724,0 3.454,0c0.151,0 0.273,-0.123 0.273,-0.273l0,0Z" style="fill:#2e2e2f;"/><circle cx="78" cy="87" r="1" style="fill:#2e2e2f;"/></g><g><path d="M57.709,95.488l6.516,6.512l6.768,-6.515l-13.284,0.003Z" style="fill:#fd8002;"/><path id="Shape.2e..-34" d="M58.503,72.772l5.249,-5.686l5.686,5.686l-3.062,3.062l4.811,19.682l-7.479,0l-7.392,0l5.249,-19.682l-3.062,-3.062Z" style="fill:#fd8002;fill-rule:nonzero;"/><path id="Rectangle.2e..-24.2e..-copy.2e..-4" d="M70.618,95.818l-5.289,-19.742l1.1,-0.33l0.729,-0.775l5.595,20.88l-2.135,-0.033Zm-14.92,-0.233l5.522,-20.517l0.357,0.305l1.12,0.746l0.369,0.038l-5.239,19.461l-2.129,-0.033Z" style="fill:#2e2e2f;"/><path id="Ellipse.2e..-6" d="M76.5,78.365l-1.452,1.451l-5.647,-5.648c-1.091,1.732 -3.015,2.885 -5.212,2.885c-2.285,0 -4.276,-1.248 -5.338,-3.097l-5.896,5.896l-1.455,-1.456l11.608,-11.607l0.907,-0.842l0.908,0.842l11.577,11.576Zm-16.507,-5.551c0.744,1.516 2.301,2.559 4.103,2.559c1.762,0 3.287,-0.999 4.05,-2.459l-4.127,-4.126l-4.026,4.026Z" style="fill:#2e2e2f;"/></g></svg>