<?xml version="1.0" encoding="UTF-8" standalone="no"?><!DOCTYPE svg PUBLIC "-//W3C//DTD SVG 1.1//EN" "http://www.w3.org/Graphics/SVG/1.1/DTD/svg11.dtd"><svg width="100%" height="100%" viewBox="0 0 181 181" version="1.1" xmlns="http://www.w3.org/2000/svg" xmlns:xlink="http://www.w3.org/1999/xlink" xml:space="preserve" xmlns:serif="http://www.serif.com/" style="fill-rule:evenodd;clip-rule:evenodd;stroke-linejoin:round;stroke-miterlimit:1.41421;"><g id="Tools"><path d="M95.81,101.684l-34.216,-33.796l6.235,-5.933l34.216,33.796l-6.235,5.933Z" style="fill:#2e2e2f;fill-rule:nonzero;"/><path d="M128.535,128.535c-3.319,3.319 -8.701,3.319 -12.021,0l-30.049,-30.051c-3.319,-3.32 -3.319,-8.702 0,-12.022c3.319,-3.319 8.702,-3.319 12.021,0l30.051,30.052c3.32,3.322 3.32,8.702 -0.002,12.021Z" style="fill-rule:nonzero;"/><path d="M97.366,71.612l-25.755,25.755l12.021,12.021l25.754,-25.755l-12.02,-12.021Z" style="fill:#fff;"/><path d="M67.136,73.394l-12.561,-6.469l-6.469,-12.56l6.093,-6.093l12.56,6.469l6.469,12.56l-6.092,6.093Z" style="fill:#2e2e2f;fill-rule:nonzero;"/><path d="M122.01,71.01c-3.319,3.319 -8.702,3.319 -12.022,0c-3.319,-3.32 -3.319,-8.703 0,-12.022l13.762,-13.761c-2.403,-0.941 -5.011,-1.477 -7.75,-1.477c-11.736,0 -21.25,9.514 -21.25,21.25c0,11.736 9.514,21.25 21.25,21.25c11.736,0 21.25,-9.514 21.25,-21.25c0,-2.739 -0.536,-5.347 -1.479,-7.75l-13.761,13.76Z" style="fill:#fff;fill-rule:nonzero;"/><path d="M58.991,109.99c3.319,-3.319 8.701,-3.319 12.021,0c3.319,3.32 3.319,8.703 0,12.022l-13.762,13.761c2.403,0.941 5.011,1.477 7.75,1.477c11.736,0 21.25,-9.514 21.25,-21.25c0,-11.736 -9.514,-21.25 -21.25,-21.25c-11.736,0 -21.25,9.514 -21.25,21.25c0,2.739 0.536,5.347 1.479,7.75l13.761,-13.76Z" style="fill:#fff;fill-rule:nonzero;"/></g></svg>